<?xml version="1.0" standalone="no"?>
<!DOCTYPE svg PUBLIC "-//W3C//DTD SVG 20010904//EN"
 "http://www.w3.org/TR/2001/REC-SVG-20010904/DTD/svg10.dtd">
<svg version="1.0" xmlns="http://www.w3.org/2000/svg"
 width="1082.000000pt" height="551.000000pt" viewBox="0 0 1082.000000 551.000000"
 preserveAspectRatio="xMidYMid meet">

<g transform="translate(0.000000,551.000000) scale(0.100000,-0.100000)"
fill="#000000" stroke="none">
<path d="M4375 5504 c-594 -46 -1008 -213 -1436 -581 -15 -12 -35 -2 -170 87
-175 116 -335 199 -397 207 -32 4 -68 -3 -158 -33 -114 -37 -117 -38 -186 -26
-106 18 -119 28 -229 163 -20 24 -58 56 -86 71 -95 52 -147 60 -418 65 -223 3
-254 6 -286 23 l-36 19 -184 -183 c-102 -101 -200 -190 -221 -199 -28 -13 -66
-17 -166 -17 -150 0 -173 -9 -230 -95 -83 -128 -164 -447 -166 -655 -1 -160
36 -217 238 -369 74 -56 153 -123 175 -149 79 -92 122 -200 137 -344 l7 -68
176 -69 c271 -106 432 -163 476 -168 33 -4 68 6 189 55 120 49 153 59 169 50
11 -6 92 -64 180 -130 203 -152 318 -229 421 -282 44 -24 87 -45 94 -47 7 -2
21 -40 32 -84 91 -381 319 -770 620 -1058 188 -180 366 -303 605 -418 301
-144 578 -212 915 -226 466 -18 934 114 1320 372 63 42 105 66 92 53 l-22 -24
87 -85 c107 -103 162 -144 272 -199 131 -65 205 -80 403 -80 151 0 169 2 175
18 11 29 24 32 161 32 155 0 174 -6 264 -81 93 -77 131 -91 247 -90 103 0 337
37 461 71 96 27 179 68 202 100 10 14 27 70 38 125 11 55 28 111 38 125 10 14
61 48 113 77 145 79 212 125 236 161 27 42 38 148 29 291 -9 135 -21 191 -57
267 -55 116 -133 184 -327 284 -95 48 -109 59 -174 137 -83 100 -121 121 -181
103 -48 -14 -117 -75 -117 -104 0 -26 54 -120 120 -207 46 -62 47 -64 28 -78
-32 -22 -58 -90 -58 -153 0 -31 11 -128 25 -216 29 -182 27 -195 -35 -236 -53
-35 -128 -64 -330 -131 -96 -31 -201 -68 -232 -82 l-57 -25 -58 35 c-32 20
-96 68 -143 107 -160 135 -185 153 -260 189 l-75 36 -188 3 c-186 4 -188 3
-208 -20 -32 -35 -6 2 84 123 143 190 256 407 330 634 54 163 63 205 46 215
-20 13 -24 6 -39 -57 -37 -167 -153 -442 -258 -611 -62 -100 -147 -214 -215
-288 l-49 -54 -125 0 c-106 0 -124 2 -120 15 4 8 37 61 75 117 136 204 204
321 209 357 5 35 4 37 -51 64 -63 30 -81 33 -93 14 -4 -8 -20 -22 -36 -32 -30
-19 -51 -11 -62 26 -14 45 -38 40 -115 -21 l-75 -59 -22 21 c-29 27 -29 30 3
78 39 58 29 81 -45 104 -79 24 -188 87 -322 185 -161 119 -145 114 -304 99
-108 -10 -136 -15 -140 -28 -3 -9 -20 -31 -39 -49 l-34 -33 -31 42 c-17 24
-31 47 -31 52 0 13 -49 -2 -112 -34 -49 -25 -64 -29 -100 -23 -81 14 -145 44
-186 89 -48 52 -59 97 -37 158 9 23 17 47 18 52 1 6 -16 14 -39 19 -38 9 -44
7 -88 -27 -28 -21 -59 -36 -74 -36 -75 1 -161 96 -170 189 -12 128 56 231 174
264 114 32 172 22 250 -44 58 -49 184 -102 201 -85 4 4 -2 25 -15 46 -12 21
-22 52 -22 67 1 63 55 137 157 213 38 28 54 67 51 131 -2 40 4 54 45 112 42
59 52 67 80 67 18 0 39 4 47 10 11 7 9 11 -13 19 -31 12 -35 31 -9 48 28 17
68 148 56 182 -12 35 -60 39 -125 11 -28 -12 -83 -23 -128 -27 l-79 -6 -25 49
c-14 27 -52 96 -85 152 l-60 104 58 80 c69 93 69 93 -17 165 -31 26 -76 65
-100 87 l-43 39 0 -35 c0 -64 -13 -70 -127 -66 -95 3 -104 5 -147 35 -42 30
-45 31 -51 12 -8 -25 -41 -46 -86 -54 -31 -6 -36 -4 -47 20 -24 53 -10 93 30
87 10 -2 24 1 33 5 12 7 2 24 -50 88 -89 110 -104 117 -235 113 -91 -4 -112
-8 -160 -32 -30 -15 -71 -44 -91 -63 -40 -38 -86 -52 -166 -53 -29 0 -53 -4
-53 -10 0 -5 14 -10 31 -10 37 0 64 -14 73 -36 4 -10 -8 -52 -28 -98 -55 -128
-79 -265 -73 -421 4 -111 11 -153 45 -285 55 -211 105 -379 159 -540 45 -133
107 -279 99 -230 -17 95 -28 201 -22 217 7 17 8 17 22 -2 8 -11 52 -90 96
-175 45 -85 101 -187 125 -227 24 -39 43 -74 43 -76 0 -3 -30 2 -67 10 -205
42 -225 44 -340 23 -104 -19 -245 -26 -278 -14 -9 4 -28 30 -42 58 -106 211
-354 401 -685 526 -68 26 -88 38 -88 52 0 48 46 237 91 373 82 247 208 479
366 675 79 98 267 279 368 355 82 62 280 185 297 185 5 0 -13 -27 -41 -61 -28
-33 -49 -64 -46 -68 2 -5 62 -11 132 -14 l127 -6 61 41 c81 56 189 136 249
186 l49 40 53 -26 53 -26 53 28 c29 16 74 42 101 58 47 30 48 30 134 22 82 -8
88 -11 93 -34 10 -43 84 -35 162 17 l37 25 89 -51 c112 -64 146 -66 216 -16
55 39 70 41 138 20 26 -7 91 -19 145 -25 65 -7 102 -15 109 -25 6 -8 16 -15
23 -15 17 0 13 -21 -12 -63 l-23 -38 -24 26 c-22 24 -68 36 -55 15 3 -5 47
-39 98 -74 51 -36 118 -94 149 -129 64 -72 107 -97 167 -97 49 0 52 13 19 71
-17 30 -31 42 -62 50 -78 21 -103 52 -73 93 13 18 16 18 60 -9 26 -15 57 -41
69 -58 12 -18 38 -50 57 -73 20 -22 74 -95 121 -162 46 -66 95 -126 108 -132
30 -13 166 -40 204 -40 14 0 29 6 31 13 6 13 25 -5 83 -77 24 -31 34 -37 47
-29 15 8 8 21 -54 98 -352 444 -867 739 -1429 819 -107 16 -374 27 -465 20z
m-2927 -229 c69 -21 116 -63 132 -119 17 -62 6 -112 -34 -152 -52 -52 -129
-63 -334 -47 l-83 6 -33 73 c-26 54 -42 77 -66 89 -28 14 -31 20 -26 46 9 45
34 76 79 98 36 18 61 21 178 21 93 0 152 -5 187 -15z m2067 -25 c-3 -5 -12
-10 -18 -10 -7 0 -6 4 3 10 19 12 23 12 15 0z m-1053 -321 c62 -22 168 -60
236 -84 l123 -43 -41 -33 c-22 -18 -54 -55 -70 -81 -32 -52 -32 -52 -144 -48
-61 2 -182 32 -233 58 -74 38 -88 63 -91 162 l-4 89 29 6 c15 4 33 8 38 10 25
8 51 2 157 -36z m-591 -115 c46 -29 160 -124 280 -235 107 -98 122 -107 240
-143 136 -42 133 -35 72 -163 -91 -188 -152 -377 -194 -595 -12 -66 -22 -70
-99 -43 -74 26 -127 20 -195 -22 -54 -34 -67 -38 -125 -38 -49 1 -80 8 -126
29 -80 36 -117 75 -151 161 -25 63 -33 72 -73 92 -26 13 -151 44 -290 72 -272
56 -397 89 -469 125 -71 36 -75 44 -68 134 6 67 13 90 59 180 51 99 53 107 53
180 -1 42 -5 106 -9 142 -8 62 -7 67 18 97 14 17 38 33 53 36 16 4 158 -6 317
-20 320 -29 287 -31 546 27 92 20 107 19 161 -16z m-1425 0 c-10 -39 4 -110
28 -147 12 -17 39 -41 60 -52 l38 -20 -5 -115 c-3 -63 -8 -122 -12 -131 -4
-12 -18 -16 -45 -15 -60 1 -102 -36 -130 -117 l-10 -28 -42 29 c-88 61 -108
100 -108 207 1 145 49 302 113 372 34 37 45 43 79 43 38 0 40 -1 34 -26z m721
-982 c50 -11 97 -23 103 -27 7 -4 8 -31 4 -80 -10 -112 1 -132 81 -148 17 -3
10 -14 -46 -69 -88 -88 -136 -112 -208 -105 -68 7 -194 48 -281 93 -107 55
-123 75 -108 134 9 36 13 38 56 45 26 3 70 17 99 30 64 29 88 68 78 130 l-6
43 68 -13 c37 -8 109 -23 160 -33z m1037 -376 l34 -14 4 -214 c2 -117 4 -214
3 -215 0 -1 -38 17 -85 40 -155 76 -221 169 -186 261 22 58 73 115 120 137 50
22 67 23 110 5z m278 -120 c192 -50 240 -97 240 -233 1 -124 -66 -203 -171
-203 -73 0 -233 28 -248 43 -21 23 -45 414 -27 460 4 12 15 9 57 -13 29 -16
96 -40 149 -54z m1348 -572 c129 -68 220 -171 220 -251 0 -18 -13 -47 -32 -74
-18 -24 -40 -66 -49 -94 l-17 -50 -43 3 c-68 4 -132 27 -286 104 l-143 71 0
76 c0 57 -5 86 -20 114 -11 20 -20 39 -20 42 0 7 89 57 148 82 80 34 147 27
242 -23z m-776 -69 l129 -60 16 -50 c35 -106 107 -183 250 -268 149 -89 415
-187 506 -187 26 0 79 15 140 41 81 34 106 40 140 35 63 -8 148 -43 212 -86
64 -42 361 -299 490 -424 l83 -79 -20 -32 c-26 -41 -25 -59 1 -77 l21 -14 -24
-60 c-33 -82 -109 -194 -164 -243 -28 -25 -63 -44 -92 -51 -26 -7 -159 -14
-297 -18 -295 -7 -280 -18 40 -31 l210 -9 -220 3 c-236 3 -317 13 -522 66
-537 137 -1021 483 -1327 949 -117 178 -179 307 -247 510 l-38 115 122 7 c67
4 160 12 207 17 47 5 123 8 170 8 81 -2 91 -5 214 -62z m5193 -521 c60 -45
163 -224 163 -283 0 -40 -50 -112 -107 -154 -28 -20 -53 -37 -57 -37 -3 0 -6
15 -6 33 0 42 -23 64 -119 112 -82 41 -121 77 -121 112 0 19 16 34 75 71 85
54 111 92 100 149 -6 33 -5 34 17 28 13 -4 37 -18 55 -31z m-1714 -497 c107
-53 178 -166 185 -292 4 -65 2 -72 -23 -95 -25 -23 -34 -25 -123 -24 -196 1
-387 82 -429 181 -11 28 -11 44 -2 92 l13 59 49 5 c63 6 101 34 105 77 l3 32
83 -4 c64 -3 96 -11 139 -31z m-878 -147 c39 -17 44 -22 36 -37 -17 -33 -125
-129 -197 -176 -90 -59 -149 -85 -313 -138 -112 -35 -136 -40 -157 -30 -19 8
-25 17 -22 38 3 23 31 41 228 151 124 68 254 144 290 168 36 23 70 43 77 43 6
1 32 -8 58 -19z m2130 -160 c49 -44 91 -80 94 -80 3 0 12 -4 20 -9 19 -12 -27
-71 -87 -111 l-45 -30 -153 0 -152 0 -26 30 c-14 17 -31 48 -37 69 -10 32 -9
42 6 64 33 52 204 146 266 147 18 0 51 -23 114 -80z"/>
<path d="M7606 4543 c-6 -19 -206 -922 -206 -929 0 -2 124 -4 275 -4 l275 0 5
23 c27 119 35 154 35 165 0 9 -37 12 -150 12 -82 0 -150 2 -150 4 0 2 36 167
80 365 44 199 80 366 80 371 0 6 -50 10 -119 10 -105 0 -120 -2 -125 -17z"/>
<path d="M8203 4478 l-19 -83 115 -3 c80 -2 117 1 122 9 4 7 12 39 19 71 6 33
14 66 17 74 4 12 -16 14 -115 14 l-120 0 -19 -82z"/>
<path d="M9245 4538 c-10 -40 -205 -922 -205 -925 0 -2 53 -3 119 -3 l118 0
19 86 c17 81 45 143 70 151 6 2 24 -47 44 -117 l32 -120 124 0 c84 0 124 4
124 11 0 6 -27 98 -60 203 -33 106 -60 198 -60 205 0 8 53 73 118 145 65 72
121 137 126 144 6 9 -20 12 -117 12 l-125 0 -81 -109 c-45 -60 -88 -114 -95
-120 -12 -10 -4 32 78 397 l14 62 -119 0 c-115 0 -119 -1 -124 -22z"/>
<path d="M5485 4508 c-5 -18 -35 -168 -35 -179 0 -5 38 -9 85 -9 l86 0 -7 -37
c-3 -21 -35 -179 -69 -350 l-62 -313 116 0 116 0 69 350 68 350 89 0 c49 0 89
2 89 4 0 5 27 139 35 174 l5 22 -290 0 c-224 0 -292 -3 -295 -12z"/>
<path d="M6031 4098 c-46 -233 -85 -435 -88 -450 l-5 -28 111 0 c107 0 111 1
116 23 3 12 25 122 49 245 46 237 57 262 107 262 54 0 54 -19 4 -268 -25 -125
-45 -235 -45 -244 0 -16 12 -18 109 -18 l108 0 52 258 c28 141 51 283 51 315
0 51 -4 62 -28 86 -56 57 -176 48 -253 -17 -31 -27 -40 -31 -36 -16 3 10 15
69 27 129 12 61 24 118 26 128 5 15 -5 17 -108 17 l-114 0 -83 -422z"/>
<path d="M8836 4335 c-21 -7 -56 -31 -78 -52 -22 -21 -37 -31 -34 -23 2 8 7
27 10 43 l6 27 -115 0 c-111 0 -115 -1 -120 -22 -3 -13 -37 -167 -75 -343 -39
-176 -73 -328 -76 -337 -5 -16 5 -18 114 -18 116 0 120 1 125 23 3 12 29 126
57 252 51 230 63 265 99 285 31 16 71 -4 71 -35 0 -20 -78 -386 -107 -502 -5
-23 -5 -23 114 -23 l120 0 63 283 c34 155 63 305 63 333 0 60 -22 98 -65 113
-42 15 -125 13 -172 -4z"/>
<path d="M10027 4339 c-140 -33 -226 -135 -227 -268 0 -63 1 -65 43 -105 28
-27 65 -49 108 -64 130 -46 159 -83 104 -137 -46 -47 -115 -22 -115 43 0 22
-1 23 -102 20 l-103 -3 -3 -55 c-4 -68 23 -115 83 -144 75 -37 256 -32 338 11
50 26 110 87 133 138 28 59 32 150 9 195 -18 34 -77 70 -155 95 -91 29 -110
42 -110 74 0 30 21 54 58 66 32 9 72 -18 72 -50 0 -25 0 -25 99 -25 l98 0 6
34 c8 47 -7 103 -34 132 -44 47 -195 68 -302 43z"/>
<path d="M8165 4308 c-3 -13 -37 -165 -75 -338 -38 -173 -72 -325 -75 -337 -5
-23 -5 -23 115 -23 66 0 120 2 120 5 0 4 92 421 149 678 l9 37 -119 0 c-115 0
-119 -1 -124 -22z"/>
<path d="M6900 4307 c-69 -16 -107 -36 -146 -79 -69 -73 -119 -225 -130 -393
-5 -81 -3 -94 18 -135 37 -72 70 -85 213 -85 111 0 124 2 171 27 28 15 63 43
79 63 26 34 65 122 65 145 0 6 -41 10 -100 10 l-99 0 -10 -36 c-20 -74 -78
-106 -116 -64 -16 18 -17 25 -4 92 l14 73 165 3 c111 2 166 6 171 14 15 23 32
176 25 221 -9 58 -42 107 -86 129 -48 23 -162 31 -230 15z m112 -152 c7 -16 8
-38 2 -67 l-9 -43 -54 -3 c-30 -2 -58 1 -64 7 -13 13 19 108 41 121 33 18 72
12 84 -15z"/>
<path d="M2963 4147 c-22 -10 -31 -27 -15 -27 12 0 48 28 42 33 -3 2 -15 0
-27 -6z"/>
<path d="M2817 4113 c-32 -9 -55 -19 -50 -23 25 -23 126 -39 136 -22 9 13 -5
62 -17 61 -6 -1 -37 -8 -69 -16z"/>
<path d="M10354 3718 l-20 -93 33 -5 33 -5 -17 -35 c-10 -19 -30 -41 -44 -47
-18 -9 -30 -25 -37 -53 -9 -38 -9 -40 14 -40 31 0 92 25 117 48 33 29 57 89
82 202 14 60 25 111 25 114 0 3 -38 6 -83 6 l-84 0 -19 -92z"/>
<path d="M5455 3508 c-4 -14 -115 -669 -115 -681 0 -4 40 -7 89 -7 l89 0 12
73 c7 39 34 197 60 350 l47 277 -89 0 c-62 0 -90 -4 -93 -12z"/>
<path d="M10625 3409 l-18 -111 -24 31 c-22 28 -30 31 -82 31 -44 0 -66 -6
-92 -23 -70 -47 -121 -194 -123 -352 -1 -103 7 -131 47 -155 55 -34 126 -23
181 28 l28 27 -7 -32 -7 -33 86 0 c47 0 86 3 86 6 0 9 109 647 115 672 5 22 4
22 -83 22 l-89 0 -18 -111z m-64 -179 c24 -13 25 -57 4 -166 -17 -91 -36 -124
-70 -124 -38 0 -45 32 -30 128 17 103 32 149 53 162 21 12 20 12 43 0z"/>
<path d="M9569 3433 c-13 -71 -16 -78 -39 -81 -33 -5 -37 -9 -44 -64 -7 -47
-6 -48 18 -48 33 0 33 -4 1 -190 -30 -178 -30 -175 0 -205 22 -23 32 -25 114
-25 l89 0 6 30 c3 17 9 44 12 60 5 27 3 30 -21 30 -15 0 -28 7 -32 17 -7 17
23 220 38 260 6 17 16 23 38 23 31 0 34 4 46 73 l6 37 -36 0 c-40 0 -38 -13
-16 113 l8 47 -87 0 -87 0 -14 -77z"/>
<path d="M5917 3342 c-15 -10 -34 -27 -43 -38 -14 -18 -15 -17 -9 14 l7 32
-86 0 c-62 0 -86 -4 -86 -12 -1 -7 -20 -127 -44 -265 l-43 -253 87 0 87 0 27
168 c32 196 41 229 67 242 24 13 59 -3 59 -28 0 -9 -14 -93 -30 -187 -17 -93
-30 -175 -30 -182 0 -10 22 -13 84 -13 l85 0 10 53 c25 126 61 358 61 396 0
65 -32 91 -112 91 -44 0 -71 -6 -91 -18z"/>
<path d="M6325 3341 c-79 -37 -126 -119 -151 -266 -29 -172 5 -246 121 -260
156 -20 255 32 291 152 23 75 24 74 -63 71 l-77 -3 -8 -39 c-10 -49 -33 -76
-65 -76 -39 0 -46 37 -28 148 9 52 24 115 35 139 16 37 23 43 48 43 33 0 42
-14 42 -66 l0 -34 75 0 74 0 7 34 c12 67 -11 127 -59 156 -44 27 -184 28 -242
1z"/>
<path d="M6830 3349 c-105 -42 -169 -181 -170 -367 0 -132 38 -166 185 -166
155 0 217 51 261 214 22 84 24 227 4 264 -24 46 -77 66 -172 65 -46 0 -94 -5
-108 -10z m120 -114 c14 -17 10 -67 -16 -195 -19 -95 -36 -122 -72 -118 -25 3
-27 7 -30 51 -4 55 19 186 42 240 11 28 21 37 39 37 14 0 30 -7 37 -15z"/>
<path d="M7459 3342 c-15 -9 -36 -28 -47 -42 l-21 -25 6 38 6 37 -84 0 -84 0
-43 -257 c-23 -142 -42 -261 -42 -265 0 -5 38 -8 84 -8 98 0 82 -24 116 180
12 69 27 136 33 150 16 32 73 62 114 58 32 -4 32 -4 42 57 16 92 16 95 -21 95
-18 0 -45 -8 -59 -18z"/>
<path d="M7835 3349 c-11 -6 -31 -23 -44 -38 l-23 -26 6 33 6 32 -84 0 c-84 0
-84 0 -90 -27 -3 -16 -28 -163 -56 -328 -28 -165 -53 -310 -55 -322 -5 -23 -3
-23 83 -23 l89 0 7 48 c3 26 11 76 17 111 l11 63 22 -27 c47 -59 173 -37 224
39 32 47 59 139 72 242 21 168 -11 234 -112 234 -29 0 -62 -5 -73 -11z m3
-121 c16 -16 15 -100 -4 -178 -20 -86 -38 -112 -72 -108 -27 3 -27 4 -26 78 1
93 26 184 56 205 27 18 31 18 46 3z"/>
<path d="M8226 3340 c-53 -27 -69 -42 -99 -98 -50 -93 -74 -300 -42 -362 25
-48 67 -64 170 -64 72 0 98 4 130 21 77 41 117 109 141 242 27 154 12 227 -56
263 -50 26 -190 25 -244 -2z m140 -115 c8 -33 -23 -221 -44 -265 -18 -37 -58
-53 -73 -28 -13 20 -11 77 7 169 23 122 36 149 73 149 24 0 32 -5 37 -25z"/>
<path d="M8869 3342 c-15 -9 -35 -28 -46 -41 l-19 -24 4 37 4 37 -83 -3 -83
-3 -43 -245 c-23 -135 -42 -253 -43 -262 0 -16 11 -18 85 -18 47 0 85 1 85 3
0 1 13 76 29 166 19 104 36 170 47 182 21 23 78 42 110 36 13 -2 24 -1 24 2 0
3 6 39 14 79 l14 72 -37 0 c-20 0 -48 -8 -62 -18z"/>
<path d="M9105 3341 c-60 -28 -115 -96 -115 -142 0 -5 33 -9 73 -9 70 1 73 2
92 33 16 24 28 32 50 32 26 0 30 -4 33 -32 4 -42 -23 -69 -79 -78 -63 -10
-129 -34 -163 -58 -62 -44 -89 -185 -46 -240 38 -48 160 -46 205 3 24 27 35
25 35 -5 0 -25 1 -25 80 -25 l80 0 0 38 c0 20 14 115 30 210 16 95 27 185 24
201 -7 35 -36 69 -71 82 -44 16 -184 11 -228 -10z m109 -298 c-14 -66 -27 -95
-48 -109 -29 -18 -54 -9 -63 24 -8 35 15 73 57 94 50 25 62 23 54 -9z"/>
<path d="M9941 3338 c-85 -42 -137 -156 -148 -324 -9 -144 22 -188 145 -200
143 -15 239 41 273 158 l8 28 -79 0 -78 0 -12 -36 c-7 -21 -22 -40 -37 -47
-22 -10 -28 -8 -44 12 -15 18 -18 33 -13 60 12 76 2 71 144 71 147 0 137 -7
146 104 7 91 -9 142 -55 173 -48 33 -185 33 -250 1z m137 -87 c9 -5 12 -24 10
-52 l-3 -44 -49 -3 -49 -3 6 37 c10 59 48 89 85 65z"/>
<path d="M4480 3076 c-56 -15 -62 -37 -17 -65 40 -25 79 -27 97 -6 16 19 78
19 99 0 9 -8 26 -23 39 -35 27 -25 63 -26 92 -2 16 13 21 24 16 39 -6 18 -14
21 -49 20 -33 -1 -54 6 -93 31 -56 35 -102 40 -184 18z"/>
<path d="M4890 3050 c0 -5 9 -14 21 -20 29 -16 22 -54 -11 -58 -37 -5 -47 -20
-17 -27 44 -11 98 19 111 63 6 19 2 25 -28 37 -40 17 -76 20 -76 5z"/>
<path d="M8370 1331 c0 -6 17 -11 38 -13 l37 -3 3 -97 c4 -130 22 -128 22 2
l0 100 40 0 c22 0 40 5 40 10 0 6 -37 10 -90 10 -49 0 -90 -4 -90 -9z"/>
<path d="M8580 1230 c0 -67 4 -110 10 -110 6 0 10 36 10 87 0 47 3 83 8 79 4
-4 19 -42 33 -84 14 -42 32 -78 40 -80 9 -2 24 26 46 85 l32 88 0 -87 c1 -71
4 -88 16 -88 12 0 15 19 15 110 0 108 0 110 -23 110 -20 0 -27 -11 -52 -90
-18 -56 -32 -85 -37 -78 -4 7 -19 48 -34 91 -20 60 -30 77 -45 77 -18 0 -19
-8 -19 -110z"/>
<path d="M866 616 c-8 -54 -73 -389 -82 -418 -4 -14 0 -18 20 -18 18 0 26 5
26 17 0 39 23 143 31 143 6 0 33 -36 61 -80 40 -63 56 -80 74 -80 27 0 30 7
11 29 -8 9 -32 46 -55 83 l-42 67 70 58 c39 31 70 58 70 60 0 2 -8 3 -17 3
-10 0 -51 -30 -91 -66 -40 -37 -76 -64 -79 -60 -5 5 37 243 52 296 3 10 -3 15
-19 16 -21 2 -24 -4 -30 -50z"/>
<path d="M1656 650 c-2 -8 -12 -61 -22 -117 l-17 -102 -27 29 c-22 24 -37 30
-68 30 -87 0 -152 -84 -152 -198 0 -57 3 -67 29 -93 40 -39 105 -41 149 -4 28
23 30 23 25 5 -4 -15 0 -20 15 -20 17 0 22 12 37 98 9 53 30 161 46 238 16 78
29 143 29 146 0 12 -41 1 -44 -12z m-81 -205 c44 -43 29 -170 -28 -226 -35
-35 -85 -39 -112 -9 -43 48 -22 185 36 235 38 32 73 32 104 0z"/>
<path d="M4026 645 c-2 -11 -12 -64 -21 -117 l-17 -98 -28 30 c-55 59 -152 29
-198 -60 -19 -37 -23 -57 -20 -114 3 -60 7 -71 31 -92 40 -34 105 -33 148 3
30 25 31 26 25 5 -6 -18 -3 -22 13 -22 12 0 21 2 21 4 0 11 71 384 80 421 13
56 13 61 -9 61 -12 0 -22 -9 -25 -21z m-81 -198 c22 -18 27 -31 27 -68 0 -137
-88 -231 -162 -171 -48 39 -30 185 31 236 38 32 70 33 104 3z"/>
<path d="M4365 616 c-3 -29 -23 -139 -44 -244 l-38 -192 22 0 c19 0 24 7 30
48 16 112 37 181 62 206 35 35 86 36 108 2 15 -23 15 -32 1 -108 -9 -46 -20
-98 -25 -115 -9 -31 -8 -33 14 -33 21 0 24 8 44 113 26 142 26 143 -4 172 -32
33 -81 33 -129 0 -31 -21 -37 -23 -33 -8 3 10 13 54 22 98 9 44 18 87 21 95 2
10 -4 15 -20 16 -22 2 -25 -3 -31 -50z"/>
<path d="M8125 655 c-2 -5 -11 -58 -21 -117 l-17 -107 -28 30 c-34 37 -90 40
-139 6 -86 -57 -113 -205 -49 -273 32 -34 106 -34 147 1 28 23 30 23 25 5 -4
-15 0 -20 14 -20 17 0 22 11 32 73 15 83 69 360 77 392 4 16 0 21 -17 21 -12
0 -23 -5 -24 -11z m-80 -210 c65 -64 -2 -255 -89 -255 -43 0 -67 28 -73 82 -7
62 13 126 52 165 40 40 76 43 110 8z"/>
<path d="M5581 616 c-48 -17 -108 -71 -133 -119 -14 -28 -23 -67 -26 -117 -3
-65 0 -81 20 -120 33 -62 84 -90 164 -90 73 0 120 15 127 40 4 17 3 17 -37 -1
-122 -55 -226 15 -226 153 0 117 71 228 155 244 48 9 103 -1 127 -23 17 -15
21 -15 28 -3 6 8 10 18 10 23 0 26 -146 36 -209 13z"/>
<path d="M9103 611 c-38 -24 -63 -68 -63 -111 0 -32 25 -90 38 -90 5 0 27 -16
50 -36 34 -29 42 -42 42 -70 0 -93 -87 -146 -154 -93 -30 24 -31 23 -40 -8 -6
-18 -2 -24 19 -29 14 -3 51 -4 81 -2 45 4 61 10 90 38 71 70 66 157 -12 211
-60 41 -78 70 -70 114 13 66 87 96 132 54 l22 -21 12 22 c16 29 9 33 -58 37
-44 3 -64 0 -89 -16z"/>
<path d="M140 543 c-12 -77 -52 -284 -65 -336 l-7 -27 106 0 c82 0 106 3 106
13 0 11 -18 13 -80 9 l-80 -5 6 34 c3 19 21 112 40 207 19 95 34 175 34 177 0
3 -11 5 -24 5 -21 0 -24 -6 -36 -77z"/>
<path d="M404 605 c-9 -23 4 -47 23 -43 11 2 19 14 21 31 3 22 -1 27 -18 27
-11 0 -23 -7 -26 -15z"/>
<path d="M1954 605 c-9 -23 4 -47 23 -43 11 2 19 14 21 31 3 22 -1 27 -18 27
-11 0 -23 -7 -26 -15z"/>
<path d="M2575 418 c-22 -112 -41 -211 -43 -220 -3 -13 3 -18 21 -18 23 0 25
5 42 110 l19 110 73 0 c56 0 73 3 73 14 0 11 -14 13 -64 9 -35 -3 -66 -1 -69
4 -3 5 2 45 12 88 l17 80 67 0 c44 0 68 4 72 13 3 9 -18 12 -88 12 l-93 0 -39
-202z"/>
<path d="M3054 605 c-9 -23 4 -47 23 -43 11 2 19 14 21 31 3 22 -1 27 -18 27
-11 0 -23 -7 -26 -15z"/>
<path d="M4684 605 c-9 -23 4 -47 23 -43 11 2 19 14 21 31 3 22 -1 27 -18 27
-11 0 -23 -7 -26 -15z"/>
<path d="M8424 605 c-9 -23 4 -47 23 -43 11 2 19 14 21 31 3 22 -1 27 -18 27
-11 0 -23 -7 -26 -15z"/>
<path d="M10134 605 c-9 -23 4 -47 23 -43 11 2 19 14 21 31 3 22 -1 27 -18 27
-11 0 -23 -7 -26 -15z"/>
<path d="M7453 557 c-14 -6 -23 -20 -25 -41 -2 -23 -8 -32 -25 -34 -29 -4 -30
-22 -3 -22 23 0 23 0 -6 -143 -18 -88 -18 -112 2 -131 16 -16 59 -21 88 -10
25 9 19 22 -7 17 -27 -5 -57 19 -57 45 0 16 24 151 35 200 4 17 13 22 35 22
17 0 30 5 30 10 0 6 -13 10 -29 10 -29 0 -29 1 -20 36 13 45 9 54 -18 41z"/>
<path d="M585 464 c-36 -24 -37 -24 -32 -4 4 17 1 21 -16 18 -19 -3 -24 -18
-48 -143 -15 -77 -28 -143 -28 -147 -1 -5 8 -8 18 -8 13 0 21 9 25 28 31 166
41 198 67 225 50 49 119 27 119 -39 0 -26 -17 -116 -35 -187 -7 -26 -5 -28 16
-25 20 3 25 13 40 93 26 133 25 169 -7 194 -36 28 -73 26 -119 -5z"/>
<path d="M1145 471 c-93 -56 -113 -232 -32 -281 50 -31 167 -20 167 15 0 11
-5 11 -27 -1 -74 -38 -143 0 -143 80 0 44 1 45 36 52 19 3 66 3 105 0 l69 -7
0 51 c0 44 -5 56 -29 81 -24 23 -38 29 -73 29 -24 0 -56 -8 -73 -19z m120 -24
c20 -29 19 -83 -1 -91 -9 -3 -42 -6 -75 -6 -46 0 -61 4 -66 16 -9 24 25 81 59
97 36 17 63 12 83 -16z"/>
<path d="M2135 464 c-36 -24 -37 -24 -32 -5 4 16 0 21 -16 21 -20 0 -24 -11
-45 -128 -12 -70 -25 -137 -28 -149 -5 -19 -2 -23 15 -23 11 0 21 2 21 4 0 15
33 177 41 203 20 63 96 95 132 55 22 -24 21 -57 -3 -166 -11 -50 -20 -91 -20
-93 0 -2 9 -3 20 -3 21 0 20 -2 45 120 22 111 20 145 -11 169 -36 28 -73 26
-119 -5z"/>
<path d="M2921 464 c-35 -29 -42 -51 -12 -34 11 5 29 10 40 10 16 0 21 6 21
25 0 32 -11 32 -49 -1z"/>
<path d="M3193 470 c-45 -27 -76 -92 -77 -161 -2 -91 39 -139 117 -139 46 0
97 19 97 35 0 11 -5 11 -27 -1 -74 -38 -143 0 -143 80 0 44 1 45 36 52 19 3
66 3 105 0 l69 -7 0 45 c0 56 -15 91 -47 105 -37 17 -94 13 -130 -9z m120 -18
c10 -10 17 -29 17 -53 0 -45 -14 -52 -101 -47 -46 3 -54 6 -57 24 -3 24 41 82
72 94 24 8 43 3 69 -18z"/>
<path d="M3536 465 c-34 -23 -36 -23 -36 -5 0 12 -7 20 -17 20 -15 0 -22 -21
-41 -123 -13 -67 -26 -134 -29 -149 -4 -23 -2 -28 15 -28 17 0 22 12 37 93 9
50 23 106 30 124 27 65 105 83 134 31 14 -24 14 -36 -3 -119 -10 -51 -21 -101
-24 -111 -3 -13 1 -18 17 -18 13 0 22 8 25 23 44 205 45 238 10 266 -35 28
-73 26 -118 -4z"/>
<path d="M4128 467 c-54 -50 -44 -123 21 -156 49 -26 60 -54 34 -90 -26 -34
-74 -40 -101 -11 l-19 21 -6 -23 c-8 -29 7 -38 62 -38 36 0 49 6 77 34 28 28
34 42 34 75 0 39 -3 43 -50 72 -41 25 -50 36 -50 59 0 52 80 88 97 44 7 -19
23 -7 23 17 0 30 -88 27 -122 -4z"/>
<path d="M4866 465 c-35 -24 -37 -24 -31 -5 5 16 2 20 -14 20 -13 0 -22 -8
-26 -22 -2 -13 -20 -106 -39 -208 -19 -102 -38 -200 -42 -217 -6 -29 -4 -33
14 -33 22 0 24 9 52 164 9 55 20 85 20 58 0 -27 40 -52 83 -52 62 0 103 30
134 96 21 46 24 67 21 116 -4 51 -9 65 -32 85 -37 31 -92 31 -140 -2z m106
-23 c63 -54 -6 -252 -87 -252 -65 0 -93 52 -74 138 24 115 100 169 161 114z"/>
<path d="M5881 474 c-18 -10 -45 -35 -60 -58 -22 -34 -26 -50 -26 -114 0 -71
1 -75 33 -103 41 -37 105 -40 163 -7 86 48 119 203 56 265 -34 34 -115 42
-166 17z m128 -26 c30 -32 35 -78 16 -144 -22 -75 -60 -114 -113 -114 -58 0
-77 26 -76 104 1 68 28 134 66 160 33 23 83 20 107 -6z"/>
<path d="M6245 464 c-36 -24 -37 -24 -32 -5 4 16 0 21 -16 21 -20 0 -24 -11
-45 -128 -12 -70 -25 -137 -28 -149 -5 -19 -2 -23 15 -23 11 0 21 2 21 4 0 15
33 177 41 203 20 63 96 95 132 55 22 -24 21 -57 -3 -166 -11 -50 -20 -91 -20
-93 0 -2 9 -3 20 -3 21 0 20 -2 45 120 22 111 20 145 -11 169 -36 28 -73 26
-119 -5z"/>
<path d="M6566 465 c-35 -24 -37 -24 -31 -5 5 15 2 20 -14 20 -23 0 -23 -1
-51 -150 -11 -63 -23 -123 -26 -132 -4 -13 0 -18 15 -18 13 0 22 8 25 23 3 12
12 57 20 100 9 42 22 91 31 107 39 75 135 63 135 -18 0 -28 -23 -153 -36 -194
-4 -14 0 -18 18 -18 22 0 25 7 41 98 27 148 24 178 -20 201 -34 17 -67 13
-107 -14z"/>
<path d="M6849 467 c-53 -35 -81 -99 -77 -176 4 -57 8 -67 36 -92 26 -23 42
-29 78 -29 46 0 104 23 104 41 0 5 -13 3 -30 -6 -72 -37 -138 -3 -147 77 l-5
47 36 7 c21 3 68 3 105 0 58 -6 69 -4 75 9 17 44 -6 115 -43 135 -34 17 -96
12 -132 -13z m128 -28 c18 -34 16 -76 -3 -83 -24 -9 -127 -7 -143 3 -22 14 16
82 58 103 40 20 70 12 88 -23z"/>
<path d="M7157 468 c-45 -27 -87 -104 -87 -161 0 -52 26 -105 61 -122 37 -20
119 -19 147 1 31 22 27 36 -5 18 -46 -23 -91 -18 -124 15 -40 40 -42 105 -7
179 32 69 108 93 161 52 25 -20 25 -20 30 1 4 15 -1 23 -19 30 -44 16 -116 10
-157 -13z"/>
<path d="M7610 467 c-44 -29 -69 -74 -77 -135 -11 -97 36 -162 118 -162 47 0
99 18 99 35 0 11 -5 11 -27 -1 -36 -18 -83 -18 -110 1 -24 17 -47 83 -37 109
8 22 62 30 145 22 l69 -7 0 51 c0 44 -5 56 -29 81 -38 37 -101 40 -151 6z
m125 -20 c20 -29 19 -83 -1 -91 -22 -9 -127 -7 -141 2 -9 6 -7 18 7 50 30 67
101 87 135 39z"/>
<path d="M8606 465 c-34 -23 -36 -23 -36 -5 0 12 -7 20 -17 20 -15 0 -22 -21
-41 -123 -13 -67 -26 -134 -29 -149 -4 -23 -2 -28 14 -28 17 0 23 14 41 106
11 58 28 116 37 130 34 52 105 57 127 8 10 -20 8 -44 -6 -117 -11 -50 -21 -99
-24 -109 -3 -13 1 -18 17 -18 13 0 22 8 25 23 44 205 45 238 10 266 -35 28
-73 26 -118 -4z"/>
<path d="M9353 470 c-90 -55 -105 -243 -22 -285 49 -26 159 -11 159 20 0 11
-5 11 -27 -1 -76 -39 -143 4 -143 90 0 32 3 36 36 42 19 3 66 3 105 0 l69 -7
0 53 c0 29 -6 60 -13 69 -33 42 -111 52 -164 19z m120 -18 c10 -10 17 -29 17
-53 0 -45 -14 -52 -101 -47 -53 3 -54 4 -52 32 2 31 36 74 68 86 23 9 43 3 68
-18z"/>
<path d="M9686 453 l-36 -38 6 33 c5 27 4 32 -12 32 -17 0 -22 -17 -42 -122
-12 -68 -25 -135 -28 -150 -5 -23 -3 -28 14 -28 15 0 22 9 27 33 36 190 54
227 106 227 24 0 29 4 29 25 0 36 -22 31 -64 -12z"/>
<path d="M10294 476 c-17 -8 -44 -31 -60 -52 -24 -31 -29 -48 -32 -109 -4 -68
-2 -74 25 -105 25 -28 38 -34 84 -37 57 -5 109 9 109 28 0 7 -7 8 -17 4 -62
-27 -116 -16 -143 28 -37 61 -15 168 45 215 36 29 91 29 121 1 l22 -21 7 22
c4 12 4 24 1 28 -14 13 -132 12 -162 -2z"/>
<path d="M10565 475 c-52 -26 -79 -78 -83 -162 -4 -72 -4 -73 31 -108 30 -30
42 -35 81 -35 50 0 92 15 100 36 4 12 0 11 -24 -1 -72 -37 -138 -2 -147 77
l-5 47 36 7 c21 3 68 3 106 0 l69 -7 6 34 c18 97 -76 158 -170 112z m88 -6
c40 -18 61 -81 35 -107 -14 -14 -126 -16 -146 -4 -10 7 -10 15 -2 38 17 43 45
70 87 83 1 1 13 -4 26 -10z"/>
<path d="M354 330 c-29 -149 -29 -150 -9 -150 19 0 24 15 51 150 l30 150 -21
0 c-19 0 -24 -13 -51 -150z"/>
<path d="M1904 330 c-29 -149 -29 -150 -9 -150 19 0 24 14 51 150 29 149 29
150 9 150 -19 0 -24 -14 -51 -150z"/>
<path d="M2846 468 c-2 -7 -14 -65 -25 -128 -12 -63 -24 -125 -27 -137 -5 -19
-2 -23 15 -23 13 0 22 8 25 23 31 149 40 184 50 196 8 11 8 15 -1 18 -8 3 -9
13 -3 34 7 25 6 29 -11 29 -11 0 -21 -6 -23 -12z"/>
<path d="M3015 378 c-10 -55 -23 -123 -30 -150 -13 -48 -13 -48 11 -48 13 0
24 2 24 5 0 12 51 267 56 280 5 11 -1 15 -18 15 -24 0 -26 -5 -43 -102z"/>
<path d="M4651 405 c-7 -41 -20 -108 -30 -150 l-18 -75 23 0 c13 0 24 2 24 5
0 12 51 267 56 280 5 11 -1 15 -19 15 -23 0 -25 -5 -36 -75z"/>
<path d="M8396 453 c-3 -16 -14 -76 -26 -135 -11 -59 -23 -114 -26 -122 -5
-12 0 -16 18 -16 23 0 26 6 37 73 7 39 21 107 31 150 l17 77 -22 0 c-18 0 -25
-7 -29 -27z"/>
<path d="M9800 468 c0 -12 47 -247 56 -276 9 -32 37 -6 78 76 25 48 61 115 81
150 31 53 34 62 18 62 -13 0 -34 -33 -76 -120 -32 -66 -61 -120 -65 -120 -5 0
-19 54 -32 120 -20 100 -27 120 -42 120 -10 0 -18 -6 -18 -12z"/>
<path d="M10084 330 c-29 -149 -29 -150 -9 -150 19 0 24 15 51 150 l30 150
-21 0 c-19 0 -24 -13 -51 -150z"/>
<path d="M5075 161 c-25 -50 -42 -91 -38 -91 14 1 108 137 108 156 0 44 -27
19 -70 -65z"/>
</g>
</svg>
